<svg xmlns="http://www.w3.org/2000/svg" viewBox="0 0 72.8 92.03"><g id="Layer_2" data-name="Layer 2"><g id="Layer_1-2" data-name="Layer 1"><path d="M34.79,43a2.71,2.71,0,0,0,0,5.42,2.76,2.76,0,0,0,2.68-2.66A2.72,2.72,0,0,0,34.81,43Z"/><path d="M66.94,0V5.13A11.76,11.76,0,0,1,55.2,16.89H27.29V16.8c0-7.15,9-16.8,20-16.8h0V16.34A20,20,0,0,1,66.9,0Z"/><path d="M45.93,21.6h0a29.22,29.22,0,0,0-8.26-1.1A29.7,29.7,0,0,0,14.91,31.23c-.4.46-.78.93-1.12,1.41A30.81,30.81,0,0,0,9.65,40a1.53,1.53,0,0,1-1.17.92L.4,42.37a.49.49,0,0,0-.39.57.49.49,0,0,0,.23.33L6.69,47a1.6,1.6,0,0,1,.78,1.58h0a29.55,29.55,0,0,0-.2,3.52A32.13,32.13,0,0,0,14.87,73c.25.32.52.62.8.92a29.3,29.3,0,0,0,16.7,9.33,7.79,7.79,0,0,0,3.19,0,8.41,8.41,0,0,0-.7-16.51l-1.6-.21c-4.07-.45-8.4-.91-13.35-8-2.2-3.13-3.51-8.59-3.19-14,.34-10.7,8.76-19.26,19.11-19.26a18.72,18.72,0,0,1,4.34.51,13.66,13.66,0,0,1,2.83.95h0a15,15,0,0,1,8.64,12.39.84.84,0,0,0,.64.78l5.89,1.38a.49.49,0,0,1,.36.59.56.56,0,0,1-.23.31l-5.93,3.39a.83.83,0,0,0-.43.75V85.27a4.21,4.21,0,0,0,6.8,3.32C65.65,83.28,72.8,73.76,72.8,58.17,72.83,40.77,61.48,26,45.93,21.6Z"/><path d="M33.65,87.78v.76H32.3V92h-.95V88.54H30v-.76Z"/><path d="M37.21,87.78h1.36V92h-.88V88.47L36.83,92h-.92l-.85-3.56V92h-.88V87.78h1.38l.82,3.34Z"/></g></g></svg>