<svg xmlns="http://www.w3.org/2000/svg" viewBox="0 0 617.93 93.86"><g id="Layer_2" data-name="Layer 2"><g id="Layer_1-2" data-name="Layer 1"><path d="M292.5,43a2.71,2.71,0,1,0,0,5.42,2.75,2.75,0,0,0,2.68-2.66A2.71,2.71,0,0,0,292.52,43Z"/><path d="M324.65,0V5.13a11.75,11.75,0,0,1-11.74,11.76H285V16.8C285,9.65,294,0,305,0h0V16.34A20,20,0,0,1,324.61,0Z"/><path d="M303.64,21.6h0a29.22,29.22,0,0,0-8.26-1.1,29.72,29.72,0,0,0-22.76,10.73c-.4.46-.78.93-1.12,1.41A30.81,30.81,0,0,0,267.36,40a1.52,1.52,0,0,1-1.17.92l-8.08,1.48a.49.49,0,0,0-.39.57.49.49,0,0,0,.23.33L264.4,47a1.6,1.6,0,0,1,.78,1.58h0a31.81,31.81,0,0,0-.2,3.52A32.13,32.13,0,0,0,272.58,73c.25.32.52.62.8.92a29.36,29.36,0,0,0,16.7,9.33,7.79,7.79,0,0,0,3.19,0,8.41,8.41,0,0,0-.7-16.51l-1.6-.21c-4.07-.45-8.4-.91-13.35-8-2.2-3.13-3.51-8.59-3.19-14,.34-10.7,8.76-19.26,19.11-19.26a18.66,18.66,0,0,1,4.34.51,13.66,13.66,0,0,1,2.83.95h0a15,15,0,0,1,8.64,12.39.85.85,0,0,0,.64.78l5.89,1.38a.49.49,0,0,1,.36.59.48.48,0,0,1-.23.31l-5.93,3.39a.85.85,0,0,0-.43.75V85.27a4.21,4.21,0,0,0,6.8,3.32c6.91-5.31,14.06-14.83,14.06-30.42C330.54,40.77,319.19,26,303.64,21.6Z"/><path d="M291.36,87.78v.76H290V92h-.95V88.54H287.7v-.76Z"/><path d="M294.92,87.78h1.36V92h-.88V88.47L294.54,92h-.92l-.85-3.56V92h-.88V87.78h1.38l.82,3.34Z"/><path d="M221.84,43.14a5.08,5.08,0,0,0-10.16,0V58.42a12.33,12.33,0,0,1-.12,2.1,10.92,10.92,0,0,1-.31,1.51,6.55,6.55,0,0,1-1.18,2.21,5.93,5.93,0,0,1-2,1.55,6.48,6.48,0,0,1-5.35,0,5.81,5.81,0,0,1-2-1.55A6.4,6.4,0,0,1,199.53,62a13,13,0,0,1-.3-1.51c0-.37-.09-.74-.11-1.12V48.77a5.09,5.09,0,0,0-10.17,0v10.6a10.54,10.54,0,0,1-.11,1.13,13.17,13.17,0,0,1-.3,1.52,6.4,6.4,0,0,1-1.19,2.21,6,6,0,0,1-8.52.77,5.6,5.6,0,0,1-.77-.77h0A6.45,6.45,0,0,1,176.87,62a12.44,12.44,0,0,1-.3-1.5,10.26,10.26,0,0,1-.12-1.36V48.77a5.09,5.09,0,0,0-10.17,0V59.13a10,10,0,0,1-.11,1.34,11.24,11.24,0,0,1-.31,1.51,6.55,6.55,0,0,1-1.18,2.21,6.12,6.12,0,0,1-9.33,0h0A6.4,6.4,0,0,1,154.16,62a13,13,0,0,1-.3-1.51c0-.25-.06-.51-.08-.76v-11a5.09,5.09,0,0,0-10.17,0V57.3q0,.31,0,.63v1.76a6.53,6.53,0,0,1-.08.76,10.92,10.92,0,0,1-.31,1.51A6.55,6.55,0,0,1,142,64.17a5.93,5.93,0,0,1-2,1.55,6.48,6.48,0,0,1-5.35,0,6.06,6.06,0,0,1-2-1.55c-1-1.15-1.81-2.68-1.73-5.71L121.62,65a17,17,0,0,0,2.3,4.73,16,16,0,0,0,3.6,3.7,16.73,16.73,0,0,0,4.56,2.4,16.06,16.06,0,0,0,5,.86h.48a16.06,16.06,0,0,0,5-.86,16.78,16.78,0,0,0,4.57-2.4,14.08,14.08,0,0,0,1.5-1.28,16.33,16.33,0,0,0,11.16,4.63h.48a16.06,16.06,0,0,0,5-.86,16.78,16.78,0,0,0,4.57-2.4,14.48,14.48,0,0,0,1.52-1.3,19,19,0,0,0,1.52,1.31,17,17,0,0,0,4.57,2.39,16.06,16.06,0,0,0,5,.86h.49a16.06,16.06,0,0,0,5-.86,16.78,16.78,0,0,0,4.57-2.4,15.58,15.58,0,0,0,1.52-1.3,14.47,14.47,0,0,0,1.51,1.31,17.08,17.08,0,0,0,4.65,2.39,16.06,16.06,0,0,0,5,.86h.49a16.06,16.06,0,0,0,5-.86,16.78,16.78,0,0,0,4.57-2.4,16,16,0,0,0,3.6-3.7,17.06,17.06,0,0,0,2.3-4.74,18.62,18.62,0,0,0,.71-5.19V57.69h0Z"/><path d="M130.87,61.35c.09-.87.14-2.65.14-2.66a22.93,22.93,0,0,0-1.2-7.39,23.67,23.67,0,0,0-3.39-6.47,22.84,22.84,0,0,0-5.23-5.06,23.93,23.93,0,0,0-6.7-3.26,26.84,26.84,0,0,0-7.4-1h-8v10h5.62a24.61,24.61,0,0,1,6.78.83,13.47,13.47,0,0,1,4.6,2.46,13,13,0,0,1,3.3,4.17,12.45,12.45,0,0,1,1.26,5.69h0C120.68,59,130.87,61.35,130.87,61.35Z"/><path d="M99.12,35.51l26.2-22.84a5.5,5.5,0,0,1,6.77-.36h0A5.51,5.51,0,0,1,133.43,20a5.79,5.79,0,0,1-1,1.06L111.11,38.77Z"/><path d="M114.19,77.3h.48a16.06,16.06,0,0,0,5-.86,16.43,16.43,0,0,0,4.56-2.39,16.05,16.05,0,0,0,3.6-3.71,16.73,16.73,0,0,0,2.3-4.73,18.65,18.65,0,0,0,.72-5.2V58.57a5.09,5.09,0,0,0-10.18,0V59a13.46,13.46,0,0,1-.13,2.1,13,13,0,0,1-.3,1.51,6.4,6.4,0,0,1-1.19,2.21,6,6,0,0,1-2,1.56,5.76,5.76,0,0,1-2.68.58"/><path d="M34.08,78.94a13.66,13.66,0,0,0,2.47-4.6,24.68,24.68,0,0,0,.83-6.79V61.94h10v8a27.15,27.15,0,0,1-1,7.39A24,24,0,0,1,43.16,84a22.84,22.84,0,0,1-5.06,5.23,23.37,23.37,0,0,1-6.47,3.38,22.67,22.67,0,0,1-7.39,1.21h0a22.67,22.67,0,0,1-7.39-1.21,23.37,23.37,0,0,1-6.47-3.38A22.84,22.84,0,0,1,5.32,84a24,24,0,0,1-3.26-6.71,26.35,26.35,0,0,1-1-7.39V62.45a5,5,0,0,1,5-5h0a5,5,0,0,1,5,5v5.13a24.68,24.68,0,0,0,.83,6.79A13.47,13.47,0,0,0,14.35,79a12.61,12.61,0,0,0,4.17,3.29,12.33,12.33,0,0,0,5.69,1.27h0a12.38,12.38,0,0,0,5.7-1.27A12.7,12.7,0,0,0,34.08,78.94Z"/><path d="M87.79,44.27a5.09,5.09,0,0,0-5.09,5.08V59a11.34,11.34,0,0,1-.13,2.1,9.61,9.61,0,0,1-.3,1.51,6.55,6.55,0,0,1-1.18,2.21,6,6,0,0,1-2,1.56,6.48,6.48,0,0,1-5.35,0,6,6,0,0,1-2-1.56,6.4,6.4,0,0,1-1.19-2.21,9.84,9.84,0,0,1-.3-1.51,10.26,10.26,0,0,1-.12-1.36V49.35a5.09,5.09,0,0,0-10.17,0V59.73a9.53,9.53,0,0,1-.11,1.32,11.24,11.24,0,0,1-.31,1.51,6.22,6.22,0,0,1-1.18,2.21,6.09,6.09,0,0,1-2,1.56,6.51,6.51,0,0,1-5.36,0,6,6,0,0,1-2-1.56,6.4,6.4,0,0,1-1.19-2.21,13,13,0,0,1-.3-1.51c0-.27-.06-.55-.08-.83V49.35a5.09,5.09,0,0,0-10.17,0v8.59q0,.31,0,.63V62h0a16.76,16.76,0,0,0,.65,3.64,17,17,0,0,0,2.3,4.73,16.05,16.05,0,0,0,3.6,3.71,16.46,16.46,0,0,0,19.64,0A14.58,14.58,0,0,0,65,72.74a15.68,15.68,0,0,0,1.52,1.31,16.75,16.75,0,0,0,4.57,2.39,16.44,16.44,0,0,0,10.51,0,16.75,16.75,0,0,0,4.57-2.39,16.21,16.21,0,0,0,3.59-3.71A17,17,0,0,0,92,65.61a18.64,18.64,0,0,0,.71-5.2V49.35A5.08,5.08,0,0,0,87.79,44.27Z"/><path d="M99.12,77.3a15.88,15.88,0,0,1-5.25-.86,16.48,16.48,0,0,1-4.57-2.39,16.05,16.05,0,0,1-3.6-3.71,17,17,0,0,1-2.3-4.73,18.65,18.65,0,0,1-.72-5.2V58.57a5.09,5.09,0,0,1,10.18,0V59A13.64,13.64,0,0,0,93,61.09a13,13,0,0,0,.3,1.51,6.4,6.4,0,0,0,1.19,2.21h0a6,6,0,0,0,2,1.56,5.87,5.87,0,0,0,2.67.58Z"/><rect x="99.12" y="66.95" width="15.31" height="10.36"/><path d="M216.63,21.24a5.22,5.22,0,1,0,5.21,5.23v0A5.22,5.22,0,0,0,216.63,21.24Z"/><path d="M202.94,31.67a5.22,5.22,0,1,0-5.22-5.22,5.22,5.22,0,0,0,5.22,5.22Z"/><path d="M172.58,26.45a5.22,5.22,0,1,0,5.23-5.21h0A5.22,5.22,0,0,0,172.58,26.45Z"/><path d="M171.11,20.6a5.22,5.22,0,1,0-5.22-5.22,5.22,5.22,0,0,0,5.22,5.22Z"/><path d="M164.11,31.67a5.22,5.22,0,1,0-5.22-5.22,5.22,5.22,0,0,0,5.22,5.22Z"/><path d="M4.19,46v.89H2.64v4H1.55v-4H0V46Z"/><path d="M8.19,46H9.75v4.89h-1V46.82l-1,4.07h-1l-1-4.07v4.07h-1V46H6.33l.94,3.82Z"/><path d="M420.57,77.63h0a5.33,5.33,0,0,1-5.33-5.33h0V35.11a5.33,5.33,0,0,1,5.33-5.33h0a5.33,5.33,0,0,1,5.33,5.33h0V48.38a.71.71,0,0,0,.71.71h17.1a.71.71,0,0,0,.71-.71h0V35.11a5.33,5.33,0,0,1,5.33-5.33h0a5.33,5.33,0,0,1,5.33,5.33h0V72.3a5.33,5.33,0,0,1-5.33,5.33h0a5.33,5.33,0,0,1-5.33-5.33h0V59a.71.71,0,0,0-.71-.71h-17.1a.7.7,0,0,0-.71.69V72.3a5.33,5.33,0,0,1-5.33,5.33Z"/><path d="M469.4,29.78h0a5.33,5.33,0,0,1,5.33,5.33h0V72.3a5.33,5.33,0,0,1-5.33,5.33h0a5.33,5.33,0,0,1-5.33-5.33h0V35.11a5.33,5.33,0,0,1,5.33-5.33Z"/><path d="M557.12,29.78h0a5,5,0,0,0-3.94,1.95L542.65,45.54l-2.75,3.61v-14a5.33,5.33,0,0,0-5.33-5.33h0a5.33,5.33,0,0,0-5.33,5.33h0V72.34a5.33,5.33,0,0,0,5.33,5.33h0a5.33,5.33,0,0,0,5.33-5.33h0V58.25l13.29,17.43a5,5,0,0,0,3.94,1.95h0a5,5,0,0,0,3.93-7.95L549.19,54.13a.69.69,0,0,1,0-.86L561,37.73a5,5,0,0,0-3.92-7.95Z"/><path d="M605.49,56.09a15.52,15.52,0,0,0-5.13-4.47,26.53,26.53,0,0,0-6.62-2.52c-2.39-.56-4.59-1.07-6.62-1.52q-2.58-.55-5.1-1.37h-.11a3.35,3.35,0,0,1-1-.5,2.4,2.4,0,0,1-.64-.63,3.25,3.25,0,0,1-.73-2c0-3.74,4-5,9.5-4.6a38.55,38.55,0,0,1,7.22,1.32,5,5,0,0,0,6.15-3.46h0a5,5,0,0,0-3.22-6.25l-.46-.15a33,33,0,0,0-9.3-1.43,39.41,39.41,0,0,0-6.23.55c-.45.08-.8.15-1.06.22h0a4.77,4.77,0,0,0-.65.17h0c-.33.08-.66.14-1,.23a18.86,18.86,0,0,0-5.84,2.67,13.59,13.59,0,0,0-4.15,4.58,14.36,14.36,0,0,0-1.51,7,12.08,12.08,0,0,0,2.09,7.28,14.79,14.79,0,0,0,5.13,4.33,26.57,26.57,0,0,0,6.64,2.37c2.37.53,9.21,1.46,11.74,2.43a3.38,3.38,0,0,1,2,3.07,2.52,2.52,0,0,1-.84,1.92,6.3,6.3,0,0,1-2,1.25,16.39,16.39,0,0,1-6.85.66,32.07,32.07,0,0,1-7.84-1.9,16.56,16.56,0,0,1-1.63-.82,5,5,0,0,0-6.8,1.92,1.62,1.62,0,0,0-.1.18l-.3.58a5,5,0,0,0,2,6.7,38.33,38.33,0,0,0,18.79,4.49,19.07,19.07,0,0,0,2-.2l.58-.07h0a19,19,0,0,0,3.15-.84,17.41,17.41,0,0,0,5.45-3.08,16,16,0,0,0,3.94-4.77,12.27,12.27,0,0,0,1.46-6A12.08,12.08,0,0,0,605.49,56.09Z"/><path d="M612,33.05V34h-1.63v4.21h-1.19V34h-1.63v-.91Z"/><path d="M616.29,33.05h1.64v5.12h-1.06v-4.3l-1,4.3h-1.1l-1-4.3v4.3h-1.06V33.05h1.66l1,4Z"/><path d="M391.46,78.47A23.83,23.83,0,1,1,407,36.54a4.92,4.92,0,0,1-6.21,7.64l-.19-.17a14,14,0,1,0-.09,21.33,4.92,4.92,0,0,1,6.34,7.53A23.87,23.87,0,0,1,391.46,78.47Z"/><path d="M505.19,78.47a23.83,23.83,0,1,1,15.5-41.93,4.92,4.92,0,0,1-6.21,7.64l-.19-.17a14,14,0,1,0-.09,21.33,4.92,4.92,0,0,1,6.34,7.53A23.87,23.87,0,0,1,505.19,78.47Z"/></g></g></svg>